<svg width="62" height="63" viewBox="0 0 62 63" fill="none" xmlns="http://www.w3.org/2000/svg">
<g filter="url(#filter0_d)">
<rect y="0.859375" width="58" height="58" fill="#EEEEEE"/>
<rect x="1" y="1.85938" width="56" height="56" stroke="#222222" stroke-width="2"/>
</g>
<g clip-path="url(#clip0)">
<path d="M34.5828 32.8594C33.5306 35.1569 31.3674 36.6099 29 36.6094" stroke="black" stroke-width="1.5" stroke-linecap="round" stroke-linejoin="round"/>
<path d="M38.1855 24.6096C36.3868 20.9208 32.8519 18.6128 29.0009 18.6128C25.15 18.6128 21.615 20.9208 19.8163 24.6096" stroke="black" stroke-width="1.5" stroke-linecap="round" stroke-linejoin="round"/>
<path d="M18.9911 26.8535C17.822 31.4331 19.4349 36.3146 23.0209 39.0503C26.607 41.7861 31.393 41.7861 34.979 39.0503C38.5651 36.3146 40.178 31.4331 39.0089 26.8535" stroke="black" stroke-width="1.5" stroke-linecap="round" stroke-linejoin="round"/>
<path fill-rule="evenodd" clip-rule="evenodd" d="M29 24.6094C29.0928 27.8184 26.7697 30.5029 23.8077 30.6094C20.8457 30.5029 18.5226 27.8184 18.6154 24.6094H29Z" stroke="black" stroke-width="1.5" stroke-linecap="round" stroke-linejoin="round"/>
<path fill-rule="evenodd" clip-rule="evenodd" d="M39.3846 24.6094C39.4774 27.8184 37.1543 30.5029 34.1923 30.6094C31.2303 30.5029 28.9072 27.8184 29 24.6094H39.3846Z" stroke="black" stroke-width="1.5" stroke-linecap="round" stroke-linejoin="round"/>
</g>
<defs>
<filter id="filter0_d" x="0" y="0.859375" width="62" height="62" filterUnits="userSpaceOnUse" color-interpolation-filters="sRGB">
<feFlood flood-opacity="0" result="BackgroundImageFix"/>
<feColorMatrix in="SourceAlpha" type="matrix" values="0 0 0 0 0 0 0 0 0 0 0 0 0 0 0 0 0 0 127 0"/>
<feOffset dx="4" dy="4"/>
<feColorMatrix type="matrix" values="0 0 0 0 0.933333 0 0 0 0 0.933333 0 0 0 0 0.933333 0 0 0 1 0"/>
<feBlend mode="normal" in2="BackgroundImageFix" result="effect1_dropShadow"/>
<feBlend mode="normal" in="SourceGraphic" in2="effect1_dropShadow" result="shape"/>
</filter>
<clipPath id="clip0">
<rect width="24" height="24" fill="white" transform="translate(17 17.8594)"/>
</clipPath>
</defs>
</svg>
