<svg width="62" height="63" viewBox="0 0 62 63" fill="none" xmlns="http://www.w3.org/2000/svg">
<g filter="url(#filter0_d)">
<rect y="0.859375" width="58" height="58" fill="#EEEEEE"/>
<rect x="1" y="1.85938" width="56" height="56" stroke="#222222" stroke-width="2"/>
</g>
<g clip-path="url(#clip0)">
<path fill-rule="evenodd" clip-rule="evenodd" d="M24.5 26.8594C26.7782 26.8594 28.625 25.0125 28.625 22.7344C28.625 20.4562 26.7782 18.6094 24.5 18.6094C22.2218 18.6094 20.375 20.4562 20.375 22.7344C20.375 25.0125 22.2218 26.8594 24.5 26.8594Z" stroke="black" stroke-width="1.5" stroke-linecap="round" stroke-linejoin="round"/>
<path d="M29.21 30.2845C27.2696 28.385 24.3791 27.8347 21.8765 28.8884C19.3738 29.9421 17.7474 32.3941 17.75 35.1095" stroke="black" stroke-width="1.5" stroke-linecap="round" stroke-linejoin="round"/>
<path d="M38.75 33.6094H32.75C31.9216 33.6094 31.25 34.2809 31.25 35.1094V39.6094C31.25 40.4378 31.9216 41.1094 32.75 41.1094H38.75C39.5784 41.1094 40.25 40.4378 40.25 39.6094V35.1094C40.25 34.2809 39.5784 33.6094 38.75 33.6094Z" stroke="black" stroke-width="1.5" stroke-linecap="round" stroke-linejoin="round"/>
<path fill-rule="evenodd" clip-rule="evenodd" d="M35.75 29.1094C34.0931 29.1094 32.75 30.4525 32.75 32.1094V33.6094H38.75V32.1094C38.75 30.4525 37.4069 29.1094 35.75 29.1094Z" stroke="black" stroke-width="1.5" stroke-linecap="round" stroke-linejoin="round"/>
<path d="M35.75 37.0137C35.5429 37.0137 35.375 37.1815 35.375 37.3887C35.375 37.5958 35.5429 37.7637 35.75 37.7637C35.9571 37.7637 36.125 37.5958 36.125 37.3887C36.1253 37.2891 36.0858 37.1936 36.0155 37.1232C35.9451 37.0528 35.8495 37.0134 35.75 37.0137Z" stroke="black" stroke-width="1.5" stroke-linecap="round" stroke-linejoin="round"/>
</g>
<defs>
<filter id="filter0_d" x="0" y="0.859375" width="62" height="62" filterUnits="userSpaceOnUse" color-interpolation-filters="sRGB">
<feFlood flood-opacity="0" result="BackgroundImageFix"/>
<feColorMatrix in="SourceAlpha" type="matrix" values="0 0 0 0 0 0 0 0 0 0 0 0 0 0 0 0 0 0 127 0"/>
<feOffset dx="4" dy="4"/>
<feColorMatrix type="matrix" values="0 0 0 0 0.933333 0 0 0 0 0.933333 0 0 0 0 0.933333 0 0 0 1 0"/>
<feBlend mode="normal" in2="BackgroundImageFix" result="effect1_dropShadow"/>
<feBlend mode="normal" in="SourceGraphic" in2="effect1_dropShadow" result="shape"/>
</filter>
<clipPath id="clip0">
<rect width="24" height="24" fill="white" transform="translate(17 17.8594)"/>
</clipPath>
</defs>
</svg>
