<svg width="62" height="63" viewBox="0 0 62 63" fill="none" xmlns="http://www.w3.org/2000/svg">
<g filter="url(#filter0_d)">
<rect y="0.859375" width="58" height="58" fill="#EEEEEE"/>
<rect x="1" y="1.85938" width="56" height="56" stroke="#222222" stroke-width="2"/>
</g>
<g clip-path="url(#clip0)">
<path d="M25.25 35.8594L22.25 38.1094V33.6094H19.25C18.4216 33.6094 17.75 32.9378 17.75 32.1094V20.1094C17.75 19.2809 18.4216 18.6094 19.25 18.6094H35.75C36.5784 18.6094 37.25 19.2809 37.25 20.1094V24.6094" stroke="black" stroke-width="1.5" stroke-linecap="round" stroke-linejoin="round"/>
<path d="M22.9929 28.5596C23.9385 29.06 24.9512 29.4217 25.9999 29.6336" stroke="black" stroke-width="1.5" stroke-linecap="round" stroke-linejoin="round"/>
<path d="M23.75 23.1094V24.6094" stroke="black" stroke-width="1.5" stroke-linecap="round" stroke-linejoin="round"/>
<path d="M31.25 23.1094V24.6094" stroke="black" stroke-width="1.5" stroke-linecap="round" stroke-linejoin="round"/>
<path fill-rule="evenodd" clip-rule="evenodd" d="M40.25 36.6094H37.25V41.1094L32.75 36.6094H28.25V27.6094H40.25V36.6094Z" stroke="black" stroke-width="1.5" stroke-linecap="round" stroke-linejoin="round"/>
<path d="M31.25 31.7344C31.0429 31.7344 30.875 31.9023 30.875 32.1094C30.875 32.3165 31.0429 32.4844 31.25 32.4844C31.4571 32.4844 31.625 32.3165 31.625 32.1094C31.625 31.9023 31.4571 31.7344 31.25 31.7344Z" stroke="black" stroke-width="1.5" stroke-linecap="round" stroke-linejoin="round"/>
<path d="M34.25 31.7344C34.0429 31.7344 33.875 31.9023 33.875 32.1094C33.875 32.3165 34.0429 32.4844 34.25 32.4844C34.4571 32.4844 34.625 32.3165 34.625 32.1094C34.625 31.9023 34.4571 31.7344 34.25 31.7344Z" stroke="black" stroke-width="1.5" stroke-linecap="round" stroke-linejoin="round"/>
<path d="M37.25 31.7344C37.0429 31.7344 36.875 31.9023 36.875 32.1094C36.875 32.3165 37.0429 32.4844 37.25 32.4844C37.4571 32.4844 37.625 32.3165 37.625 32.1094C37.625 31.9023 37.4571 31.7344 37.25 31.7344Z" stroke="black" stroke-width="1.5" stroke-linecap="round" stroke-linejoin="round"/>
</g>
<defs>
<filter id="filter0_d" x="0" y="0.859375" width="62" height="62" filterUnits="userSpaceOnUse" color-interpolation-filters="sRGB">
<feFlood flood-opacity="0" result="BackgroundImageFix"/>
<feColorMatrix in="SourceAlpha" type="matrix" values="0 0 0 0 0 0 0 0 0 0 0 0 0 0 0 0 0 0 127 0"/>
<feOffset dx="4" dy="4"/>
<feColorMatrix type="matrix" values="0 0 0 0 0.933333 0 0 0 0 0.933333 0 0 0 0 0.933333 0 0 0 1 0"/>
<feBlend mode="normal" in2="BackgroundImageFix" result="effect1_dropShadow"/>
<feBlend mode="normal" in="SourceGraphic" in2="effect1_dropShadow" result="shape"/>
</filter>
<clipPath id="clip0">
<rect width="24" height="24" fill="white" transform="translate(17 17.8594)"/>
</clipPath>
</defs>
</svg>
