<svg width="62" height="63" viewBox="0 0 62 63" fill="none" xmlns="http://www.w3.org/2000/svg">
<g filter="url(#filter0_d)">
<rect y="0.859375" width="58" height="58" fill="#EEEEEE"/>
<rect x="1" y="1.85938" width="56" height="56" stroke="#222222" stroke-width="2"/>
</g>
<g clip-path="url(#clip0)">
<path d="M32.75 18.6094H25.25C23.5931 18.6094 22.25 19.9525 22.25 21.6094V38.1094C22.25 39.7662 23.5931 41.1094 25.25 41.1094H32.75C34.4069 41.1094 35.75 39.7662 35.75 38.1094V21.6094C35.75 19.9525 34.4069 18.6094 32.75 18.6094Z" stroke="black" stroke-width="1.5" stroke-linecap="round" stroke-linejoin="round"/>
<path d="M27 38.8594H31" stroke="black" stroke-width="1.5" stroke-linecap="round"/>
<path d="M28.875 20.8594C28.6679 20.8594 28.5 21.0273 28.5 21.2344C28.5 21.4415 28.6679 21.6094 28.875 21.6094C29.0821 21.6094 29.25 21.4415 29.25 21.2344C29.25 21.0273 29.0821 20.8594 28.875 20.8594Z" stroke="black" stroke-width="1.5" stroke-linecap="round" stroke-linejoin="round"/>
</g>
<defs>
<filter id="filter0_d" x="0" y="0.859375" width="62" height="62" filterUnits="userSpaceOnUse" color-interpolation-filters="sRGB">
<feFlood flood-opacity="0" result="BackgroundImageFix"/>
<feColorMatrix in="SourceAlpha" type="matrix" values="0 0 0 0 0 0 0 0 0 0 0 0 0 0 0 0 0 0 127 0"/>
<feOffset dx="4" dy="4"/>
<feColorMatrix type="matrix" values="0 0 0 0 0.933333 0 0 0 0 0.933333 0 0 0 0 0.933333 0 0 0 1 0"/>
<feBlend mode="normal" in2="BackgroundImageFix" result="effect1_dropShadow"/>
<feBlend mode="normal" in="SourceGraphic" in2="effect1_dropShadow" result="shape"/>
</filter>
<clipPath id="clip0">
<rect width="24" height="24" fill="white" transform="translate(17 17.8594)"/>
</clipPath>
</defs>
</svg>
